<?xml version="1.0" encoding="UTF-8"?><svg id="c" xmlns="http://www.w3.org/2000/svg" viewBox="0 0 600 200"><defs><style>.e{fill:#fff;}</style></defs><path class="e" d="M255.69,154.78c-.07.07-.16.11-.25.11h-11.13c-.1,0-.15.05-.15.15l-1.35,10.92c0,.1.04.15.11.15h7.75c.1,0,.18.04.24.11.06.07.08.16.05.25l-.04.25c0,.1-.04.18-.11.25-.07.07-.17.11-.29.11h-7.71c-.1,0-.15.05-.15.15l-1.46,11.75c-.05.24-.18.36-.4.36h-.36c-.24,0-.34-.12-.29-.36l3.02-24.74c.05-.24.18-.36.4-.36h11.97c.22,0,.33.12.33.36l-.04.29c-.02.1-.07.18-.15.25Z"/><path class="e" d="M268.1,161.12h.36c.24,0,.34.12.29.36l-2.15,17.5c-.05.24-.18.36-.4.36h-.33c-.12,0-.21-.04-.27-.11-.06-.07-.08-.16-.05-.25l.25-1.96c0-.07-.02-.11-.05-.11s-.08.02-.13.07c-.53.83-1.21,1.47-2.04,1.95-.82.47-1.73.71-2.73.71-1.48,0-2.65-.45-3.51-1.36-.86-.91-1.29-2.1-1.29-3.58,0-.82.13-2.3.4-4.44.29-2.13.52-3.6.69-4.4.34-1.48,1.06-2.69,2.15-3.62,1.09-.93,2.39-1.4,3.89-1.4.99,0,1.84.24,2.55.71.7.47,1.22,1.12,1.56,1.95.02.05.05.07.09.07s.07-.04.09-.11l.22-1.96c.05-.24.18-.36.4-.36ZM266.64,170.25c.19-1.72.33-3.1.4-4.15.05-1.24-.27-2.26-.95-3.06-.68-.8-1.64-1.2-2.87-1.2s-2.36.4-3.29,1.2c-.93.8-1.53,1.82-1.8,3.06-.12.7-.32,2.07-.58,4.11l-.11,1.09c-.15,1.16-.25,2.18-.33,3.06-.05,1.24.3,2.26,1.04,3.06.74.8,1.74,1.2,3,1.2s2.3-.4,3.18-1.2c.89-.8,1.45-1.82,1.69-3.06.22-1.29.42-2.66.62-4.11Z"/><path class="e" d="M273.28,178.36c-.89-.75-1.33-1.7-1.33-2.84,0-.24.01-.42.04-.55l.04-.36c0-.1.04-.18.11-.25.07-.07.17-.11.29-.11h.29c.12,0,.21.04.27.11.06.07.08.16.05.25l-.04.33c-.02.1-.04.23-.04.4,0,.9.36,1.66,1.07,2.27.72.62,1.68.93,2.89.93,1.36,0,2.49-.41,3.38-1.24s1.35-1.86,1.35-3.09c0-.68-.18-1.24-.55-1.67-.36-.44-.8-.78-1.31-1.04s-1.25-.56-2.22-.93c-.97-.36-1.75-.7-2.35-1.02-.59-.31-1.09-.74-1.49-1.27-.4-.53-.6-1.21-.6-2.04,0-1.58.55-2.85,1.66-3.82,1.1-.97,2.5-1.46,4.2-1.46,1.46,0,2.61.37,3.46,1.11.85.74,1.27,1.71,1.27,2.89,0,.27-.01.47-.04.62v.11c-.05.24-.18.36-.4.36h-.29c-.24,0-.34-.12-.29-.36v-.11c.02-.1.04-.24.04-.44,0-.92-.35-1.69-1.06-2.29-.7-.61-1.65-.91-2.84-.91-1.36,0-2.47.38-3.35,1.15-.87.76-1.31,1.75-1.31,2.96,0,.87.31,1.55.95,2.04s1.59.97,2.87,1.46c1.07.41,1.9.78,2.49,1.09.59.32,1.11.75,1.55,1.29s.65,1.24.65,2.09c0,1.6-.55,2.91-1.66,3.93-1.1,1.02-2.52,1.53-4.24,1.53-1.48,0-2.66-.38-3.55-1.13Z"/><path class="e" d="M294.55,161.99c-.07.07-.16.11-.25.11h-3.67c-.07,0-.13.05-.18.15l-1.53,12.48c-.05.49-.07.81-.07.98,0,.97.23,1.65.69,2.04.46.39,1.19.58,2.18.58h.58c.24,0,.34.12.29.36l-.04.29c0,.1-.04.18-.11.25-.07.07-.17.11-.29.11h-.66c-1.21,0-2.13-.24-2.77-.73-.63-.49-.95-1.36-.95-2.62,0-.48.02-.87.07-1.16l1.53-12.59c0-.1-.04-.15-.11-.15h-1.82c-.1,0-.18-.04-.24-.11-.06-.07-.08-.16-.05-.25l.04-.25c0-.1.04-.18.11-.25.07-.07.17-.11.29-.11h1.78c.1,0,.15-.05.15-.15l.51-4.08c.05-.24.18-.36.4-.36h.36c.24,0,.34.12.29.36l-.47,4.08s-.02.05,0,.09c.02.04.06.05.11.05h3.67c.24,0,.34.12.29.36l-.04.25c0,.1-.04.18-.11.25Z"/><path class="e" d="M304.43,172.76c-.64-.65-.96-1.47-.96-2.44,0-.78.2-1.5.6-2.17s.93-1.2,1.6-1.6c.67-.4,1.36-.6,2.09-.6.95,0,1.73.32,2.37.96s.95,1.45.95,2.42c0,.78-.21,1.5-.62,2.17-.41.67-.95,1.21-1.6,1.62s-1.33.62-2.04.62c-.95,0-1.74-.33-2.38-.98Z"/><path class="e" d="M337.01,154.78c-.07.07-.16.11-.25.11h-11.13c-.1,0-.15.05-.15.15l-1.35,10.92c0,.1.04.15.11.15h7.75c.1,0,.18.04.24.11.06.07.08.16.05.25l-.04.25c0,.1-.04.18-.11.25-.07.07-.17.11-.29.11h-7.71c-.1,0-.15.05-.15.15l-1.46,11.75c-.05.24-.18.36-.4.36h-.36c-.24,0-.34-.12-.29-.36l3.02-24.74c.05-.24.18-.36.4-.36h11.97c.22,0,.33.12.33.36l-.04.29c-.02.1-.07.18-.15.25Z"/><path class="e" d="M346.73,161.37c.07.02.12.08.15.18.02.1.01.19-.04.29l-.22.44c-.07.24-.23.3-.47.18-.39-.19-.87-.29-1.46-.29-1.24.02-2.32.58-3.26,1.66-.93,1.08-1.5,2.41-1.69,3.98l-1.38,11.17c0,.1-.04.18-.11.25-.07.07-.17.11-.29.11h-.33c-.22,0-.33-.12-.33-.36l2.15-17.5c.05-.24.18-.36.4-.36h.36c.24,0,.34.12.29.36l-.29,2.58c-.02.07-.02.11.02.11s.08-.02.13-.07c.53-.99,1.2-1.76,1.98-2.31s1.67-.82,2.64-.82c.7,0,1.29.13,1.75.4Z"/><path class="e" d="M356.19,177.74c.85-.58,1.49-1.36,1.93-2.33.1-.19.25-.28.47-.25l.29.04c.22.05.29.19.22.44-.49,1.21-1.26,2.18-2.33,2.91-1.07.73-2.28,1.09-3.64,1.09-1.5,0-2.7-.45-3.58-1.36-.89-.91-1.33-2.09-1.33-3.55-.02-.63.06-1.78.25-3.46l.11-1.06c.24-1.99.47-3.43.69-4.33.34-1.48,1.07-2.69,2.2-3.64s2.44-1.42,3.95-1.42,2.78.46,3.68,1.38c.9.92,1.35,2.13,1.35,3.64,0,.51-.04,1.16-.13,1.95-.08.79-.19,1.66-.31,2.6-.05.24-.18.36-.4.36h-9.9c-.1,0-.15.05-.15.15-.05.58-.1.98-.15,1.2-.03.39-.06.77-.11,1.15-.05.38-.09.73-.11,1.07-.05,1.29.3,2.32,1.04,3.11.74.79,1.75,1.18,3.04,1.18,1.09,0,2.06-.29,2.91-.87ZM352.02,162.99c-.93.79-1.55,1.83-1.84,3.11l-.22,1.49-.22,1.71c0,.1.05.15.15.15h9.02c.1,0,.16-.05.18-.15l.11-.95.18-2.26c.02-1.29-.33-2.32-1.06-3.11s-1.72-1.18-2.98-1.18-2.4.39-3.33,1.18Z"/><path class="e" d="M372.09,177.74c.85-.58,1.49-1.36,1.93-2.33.1-.19.25-.28.47-.25l.29.04c.22.05.29.19.22.44-.49,1.21-1.26,2.18-2.33,2.91-1.07.73-2.28,1.09-3.64,1.09-1.5,0-2.7-.45-3.58-1.36-.89-.91-1.33-2.09-1.33-3.55-.02-.63.06-1.78.25-3.46l.11-1.06c.24-1.99.47-3.43.69-4.33.34-1.48,1.07-2.69,2.2-3.64s2.44-1.42,3.95-1.42,2.78.46,3.68,1.38c.9.92,1.35,2.13,1.35,3.64,0,.51-.04,1.16-.13,1.95-.08.79-.19,1.66-.31,2.6-.05.24-.18.36-.4.36h-9.9c-.1,0-.15.05-.15.15-.05.58-.1.98-.15,1.2-.03.39-.06.77-.11,1.15-.05.38-.09.73-.11,1.07-.05,1.29.3,2.32,1.04,3.11.74.79,1.75,1.18,3.04,1.18,1.09,0,2.06-.29,2.91-.87ZM367.92,162.99c-.93.79-1.55,1.83-1.84,3.11l-.22,1.49-.22,1.71c0,.1.05.15.15.15h9.02c.1,0,.16-.05.18-.15l.11-.95.18-2.26c.02-1.29-.33-2.32-1.06-3.11s-1.72-1.18-2.98-1.18-2.4.39-3.33,1.18Z"/><path class="e" d="M387.17,172.76c-.64-.65-.96-1.47-.96-2.44,0-.78.2-1.5.6-2.17s.93-1.2,1.6-1.6c.67-.4,1.36-.6,2.09-.6.95,0,1.73.32,2.37.96s.95,1.45.95,2.42c0,.78-.21,1.5-.62,2.17-.41.67-.95,1.21-1.6,1.62s-1.33.62-2.04.62c-.95,0-1.74-.33-2.38-.98Z"/><path class="e" d="M406.23,177.98c-1.06-1.1-1.58-2.59-1.58-4.46,0-.24.02-.63.07-1.17l2.26-18.12c0-.1.04-.18.11-.25.07-.07.16-.11.25-.11h.36c.22,0,.33.12.33.36l-2.26,18.27c-.05.44-.07.76-.07.98,0,1.55.45,2.8,1.35,3.73s2.11,1.4,3.64,1.4c1.7,0,3.13-.56,4.31-1.69,1.18-1.13,1.87-2.6,2.09-4.42l2.26-18.27c.05-.24.18-.36.4-.36h.36c.1,0,.18.04.24.11.06.07.08.16.05.25l-2.22,18.12c-.27,2.18-1.1,3.94-2.51,5.28-1.41,1.33-3.12,2-5.13,2-1.82,0-3.26-.55-4.31-1.66Z"/><path class="e" d="M434.71,162.12c.8.84,1.2,1.98,1.2,3.44,0,.22-.02.59-.07,1.13l-1.49,12.3c-.05.24-.18.36-.4.36h-.36c-.1,0-.18-.04-.24-.11-.06-.07-.08-.16-.05-.25l1.49-12.15c.05-.39.07-.68.07-.87,0-1.26-.33-2.26-1-2.98-.67-.73-1.6-1.09-2.78-1.09-1.36,0-2.51.46-3.46,1.37-.95.91-1.5,2.14-1.67,3.69l-1.49,12.04c0,.1-.04.18-.11.25-.07.07-.17.11-.29.11h-.33c-.22,0-.33-.12-.33-.36l2.15-17.5c.05-.24.18-.36.4-.36h.36c.24,0,.34.12.29.36l-.22,1.89c0,.15.05.17.15.07.53-.83,1.22-1.46,2.07-1.91.85-.45,1.78-.67,2.8-.67,1.41,0,2.51.42,3.31,1.26Z"/><path class="e" d="M439.73,178.98l3.06-24.74c.05-.24.18-.36.4-.36h.33c.12,0,.21.04.27.11.06.07.08.16.05.25l-3.06,24.74c0,.1-.04.18-.11.25s-.16.11-.25.11h-.36c-.22,0-.33-.12-.33-.36Z"/><path class="e" d="M446.95,179.24c-.06-.07-.08-.16-.05-.25l2.15-17.5c.05-.24.18-.36.4-.36h.36c.1,0,.18.04.24.11.06.07.08.16.05.25l-2.15,17.5c-.05.24-.18.36-.4.36h-.36c-.1,0-.18-.04-.24-.11ZM449.21,156.68c-.23-.24-.35-.57-.35-.98,0-.48.16-.9.49-1.24.33-.34.72-.51,1.18-.51.39,0,.7.12.95.36.24.24.36.56.36.95,0,.51-.16.93-.49,1.27-.33.34-.73.51-1.22.51-.39,0-.7-.12-.93-.36Z"/><path class="e" d="M474.73,162.13c.78.85,1.16,2.03,1.16,3.53,0,.22-.02.57-.07,1.06l-1.53,12.26c0,.1-.04.18-.11.25-.07.07-.17.11-.29.11h-.33c-.12,0-.21-.04-.27-.11-.06-.07-.08-.16-.05-.25l1.49-12.12c.02-.22.04-.52.04-.91,0-1.26-.32-2.26-.96-2.98-.64-.73-1.51-1.09-2.6-1.09-1.31,0-2.41.44-3.29,1.31-.89.87-1.43,2.07-1.62,3.6l-1.49,12.19c0,.1-.04.18-.11.25-.07.07-.17.11-.29.11h-.33c-.12,0-.21-.04-.27-.11-.06-.07-.08-.16-.05-.25l1.49-12.12c.05-.44.07-.76.07-.98,0-1.24-.32-2.21-.96-2.93s-1.51-1.07-2.6-1.07c-1.31,0-2.41.44-3.31,1.31-.9.87-1.43,2.07-1.6,3.6l-1.53,12.19c0,.1-.04.18-.11.25-.07.07-.17.11-.29.11h-.33c-.22,0-.33-.12-.33-.36l2.15-17.5c.05-.24.18-.36.4-.36h.36c.24,0,.34.12.29.36l-.18,1.75c-.02.07-.02.12.02.13.04.01.08,0,.13-.05.53-.8,1.21-1.41,2.02-1.82s1.7-.62,2.67-.62c1.07,0,1.96.28,2.67.84.72.56,1.2,1.35,1.44,2.37,0,.07.02.11.05.11s.07-.04.09-.11c.51-1.04,1.22-1.84,2.13-2.38.91-.55,1.93-.82,3.07-.82,1.33,0,2.39.42,3.17,1.27Z"/><path class="e" d="M480.28,179.24c-.06-.07-.08-.16-.05-.25l2.15-17.5c.05-.24.18-.36.4-.36h.36c.1,0,.18.04.24.11.06.07.08.16.05.25l-2.15,17.5c-.05.24-.18.36-.4.36h-.36c-.1,0-.18-.04-.24-.11ZM482.53,156.68c-.23-.24-.35-.57-.35-.98,0-.48.16-.9.49-1.24.33-.34.72-.51,1.18-.51.39,0,.7.12.95.36.24.24.36.56.36.95,0,.51-.16.93-.49,1.27-.33.34-.73.51-1.22.51-.39,0-.7-.12-.93-.36Z"/><path class="e" d="M495.47,161.99c-.07.07-.16.11-.25.11h-3.67c-.07,0-.13.05-.18.15l-1.53,12.48c-.05.49-.07.81-.07.98,0,.97.23,1.65.69,2.04s1.19.58,2.18.58h.58c.24,0,.34.12.29.36l-.04.29c0,.1-.04.18-.11.25s-.17.11-.29.11h-.66c-1.21,0-2.13-.24-2.77-.73s-.95-1.36-.95-2.62c0-.48.02-.87.07-1.16l1.53-12.59c0-.1-.04-.15-.11-.15h-1.82c-.1,0-.18-.04-.24-.11-.06-.07-.08-.16-.05-.25l.04-.25c0-.1.04-.18.11-.25s.17-.11.29-.11h1.78c.1,0,.15-.05.15-.15l.51-4.08c.05-.24.18-.36.4-.36h.36c.24,0,.34.12.29.36l-.47,4.08s-.02.05,0,.09c.02.04.06.05.11.05h3.67c.24,0,.34.12.29.36l-.04.25c0,.1-.04.18-.11.25Z"/><path class="e" d="M505.8,177.74c.85-.58,1.49-1.36,1.93-2.33.1-.19.25-.28.47-.25l.29.04c.22.05.29.19.22.44-.49,1.21-1.26,2.18-2.33,2.91-1.07.73-2.28,1.09-3.64,1.09-1.5,0-2.7-.45-3.58-1.36-.89-.91-1.33-2.09-1.33-3.55-.02-.63.06-1.78.25-3.46l.11-1.06c.24-1.99.47-3.43.69-4.33.34-1.48,1.07-2.69,2.2-3.64s2.44-1.42,3.95-1.42,2.78.46,3.68,1.38c.9.92,1.35,2.13,1.35,3.64,0,.51-.04,1.16-.13,1.95-.08.79-.19,1.66-.31,2.6-.05.24-.18.36-.4.36h-9.9c-.1,0-.15.05-.15.15-.05.58-.1.98-.15,1.2-.03.39-.06.77-.11,1.15-.05.38-.09.73-.11,1.07-.05,1.29.3,2.32,1.04,3.11.74.79,1.75,1.18,3.04,1.18,1.09,0,2.06-.29,2.91-.87ZM501.64,162.99c-.93.79-1.55,1.83-1.84,3.11l-.22,1.49-.22,1.71c0,.1.05.15.15.15h9.02c.1,0,.16-.05.18-.15l.11-.95.18-2.26c.02-1.29-.33-2.32-1.06-3.11s-1.72-1.18-2.98-1.18-2.4.39-3.33,1.18Z"/><path class="e" d="M526.32,153.98c.07-.07.17-.11.29-.11h.33c.22,0,.33.12.33.36l-3.06,24.74c-.05.24-.18.36-.4.36h-.33c-.12,0-.21-.04-.27-.11-.06-.07-.08-.16-.05-.25l.22-1.78c.02-.07.02-.11-.02-.11s-.08.02-.13.07c-1.02,1.65-2.55,2.47-4.58,2.47-1.5,0-2.64-.35-3.4-1.05-.76-.7-1.27-1.93-1.51-3.67-.1-.75-.15-1.53-.15-2.33,0-.73.04-1.38.11-1.96.07-.66.21-1.44.4-2.35.19-.91.4-1.68.62-2.31.56-1.79,1.37-3.09,2.44-3.89,1.07-.8,2.41-1.2,4.04-1.2,1.12,0,1.96.21,2.53.64.57.42.98,1.04,1.22,1.84.02.07.05.1.09.09.04-.01.05-.05.05-.13l1.13-9.06c0-.1.04-.18.11-.25ZM524.18,170.25c.12-1.14.18-2.1.18-2.87,0-1.12-.1-2.01-.29-2.69-.24-.95-.62-1.66-1.13-2.15-.51-.48-1.23-.73-2.15-.73-.97,0-1.81.24-2.51.71-.7.47-1.3,1.16-1.78,2.06-.83,1.5-1.36,3.4-1.6,5.68-.12,1.14-.18,2.12-.18,2.95,0,.92.07,1.74.22,2.44.27,1.02.68,1.78,1.25,2.29.57.51,1.39.76,2.46.76.97,0,1.78-.25,2.44-.75.66-.5,1.22-1.24,1.71-2.24.61-1.26,1.07-3.08,1.38-5.46Z"/><path class="e" d="M66.18,137.27c-.3-.35-.4-.77-.3-1.27l12.45-101.4c.1-.5.32-.92.67-1.28.35-.35.77-.52,1.27-.52h20.7c.5,0,.9.18,1.2.52.3.35.4.78.3,1.28l-9.9,81.15c-.2.5,0,.75.6.75h29.7c.5,0,.9.18,1.2.52.3.35.4.78.3,1.28l-2.25,17.7c0,.5-.2.93-.6,1.27-.4.35-.85.53-1.35.53h-52.8c-.5,0-.9-.17-1.2-.53Z"/><path class="e" d="M188.88,33.32c.3.35.4.78.3,1.28l-2.1,17.7c-.1.5-.33.93-.67,1.27-.35.35-.78.53-1.27.53h-18.15c-.5,0-.75.25-.75.75l-10.05,81.15c0,.5-.2.93-.6,1.27-.4.35-.85.53-1.35.53h-20.55c-1.1,0-1.65-.6-1.65-1.8l10.05-81.15c0-.5-.2-.75-.6-.75h-17.4c-.5,0-.9-.17-1.2-.53-.3-.35-.4-.77-.3-1.27l2.1-17.7c.1-.5.35-.92.75-1.28.4-.35.85-.52,1.35-.52h60.9c.5,0,.9.18,1.2.52Z"/><path class="e" d="M179.81,133.75c-4.05-3.2-6.08-7.4-6.08-12.6,0-1,.05-1.8.15-2.4l.15-1.35c.2-1,.75-1.5,1.65-1.5h7.05c.5,0,.87.15,1.12.45.25.3.32.65.23,1.05l-.15,1.05c-.4,3.2.65,5.98,3.15,8.33,2.5,2.35,5.9,3.53,10.2,3.53,4.6,0,8.4-1.3,11.4-3.9,3-2.6,4.5-5.85,4.5-9.75,0-3.1-1.2-5.45-3.6-7.05-2.4-1.6-6.15-3.35-11.25-5.25-6.1-2.2-10.88-4.67-14.32-7.42-3.45-2.75-5.18-6.77-5.18-12.08,0-7.2,2.48-12.95,7.43-17.25,4.95-4.3,11.32-6.45,19.12-6.45,6.8,0,12.15,1.65,16.05,4.95s5.85,7.7,5.85,13.2c0,1.2-.05,2.1-.15,2.7v.3c-.1.4-.3.75-.6,1.05-.3.3-.65.45-1.05.45h-6.75c-1,0-1.4-.5-1.2-1.5v-.6c.4-3.4-.6-6.22-3-8.47s-5.8-3.38-10.2-3.38-8.35,1.2-11.25,3.6c-2.9,2.4-4.35,5.5-4.35,9.3,0,3,1.17,5.32,3.53,6.97,2.35,1.65,6.02,3.43,11.02,5.33,4.1,1.4,7.55,2.83,10.35,4.27,2.8,1.45,5.17,3.45,7.12,6,1.95,2.55,2.92,5.78,2.92,9.68,0,1.1-.05,1.95-.15,2.55-.8,6.4-3.68,11.5-8.62,15.3-4.95,3.8-11.18,5.7-18.68,5.7-6.9,0-12.38-1.6-16.42-4.8Z"/><path class="e" d="M285.42,88.75c0,2.5-.2,5.95-.6,10.35-.7,6.5-1.9,12.45-3.6,17.85-2.5,7.5-5.92,13.03-10.27,16.58-4.35,3.55-9.78,5.33-16.27,5.33-7.6,0-12.6-2.75-15-8.25-.1-.3-.25-.42-.45-.38-.2.05-.3.22-.3.53l-4.2,34.65c-.1.4-.3.75-.6,1.05-.3.3-.65.45-1.05.45h-7.5c-1,0-1.4-.5-1.2-1.5l12.45-102c.2-1,.75-1.5,1.65-1.5h7.5c.4,0,.72.15.98.45.25.3.32.65.23,1.05l-.75,5.7c0,.3.1.48.3.53.2.05.35-.08.45-.38,4.3-5.7,10.25-8.55,17.85-8.55,6.1,0,10.77,1.68,14.02,5.03,3.25,3.35,5.27,8.73,6.08,16.12.2,1.6.3,3.9.3,6.9ZM274.32,99.85c.5-4.3.75-7.95.75-10.95,0-3.2-.2-5.8-.6-7.8-.9-3.7-2.32-6.5-4.27-8.4-1.95-1.9-4.73-2.85-8.32-2.85s-6.4.95-8.7,2.85c-2.3,1.9-4.25,4.65-5.85,8.25-2,4.4-3.5,10.7-4.5,18.9-.5,4-.75,7.5-.75,10.5,0,3.2.3,6.15.9,8.85.7,3.4,1.92,6,3.68,7.8,1.75,1.8,4.27,2.7,7.57,2.7,6.5,0,11.45-3.35,14.85-10.05,2.4-4.9,4.15-11.5,5.25-19.8Z"/><path class="e" d="M288.37,136.3l9-72.9c.2-1,.75-1.5,1.65-1.5h7.5c.4,0,.72.15.98.45.25.3.32.65.22,1.05l-9,72.9c0,.4-.15.75-.45,1.05-.3.3-.7.45-1.2.45h-7.35c-.9,0-1.35-.5-1.35-1.5ZM299.4,46.07c-1.35-1.35-2.02-3.07-2.02-5.17,0-2.7.9-4.97,2.7-6.83,1.8-1.85,4-2.77,6.6-2.77,2.1,0,3.83.65,5.17,1.95,1.35,1.3,2.03,3.05,2.03,5.25,0,2.7-.88,4.98-2.62,6.82-1.75,1.85-3.93,2.78-6.53,2.78-2.2,0-3.97-.67-5.32-2.03Z"/><path class="e" d="M316.99,133.07c-4.05-3.95-6.13-9.27-6.23-15.97,0-4.9.4-10.7,1.2-17.4.6-4.9,1.6-10.65,3-17.25,1.7-6.5,5.1-11.75,10.2-15.75,5.1-4,11.15-6,18.15-6s12.3,1.88,16.5,5.62,6.4,8.53,6.6,14.33v3.15c0,.5-.15.9-.45,1.2-.3.3-.65.45-1.05.45l-7.5.45c-.9,0-1.35-.45-1.35-1.35v-1.8c0-3.5-1.28-6.5-3.82-9-2.55-2.5-5.93-3.75-10.12-3.75s-8,1.35-11.1,4.05-5.15,6.2-6.15,10.5c-.9,4-1.75,9.1-2.55,15.3-.8,6.7-1.2,11.85-1.2,15.45,0,4.4,1.2,7.9,3.6,10.5,2.4,2.6,5.75,3.9,10.05,3.9s8.03-1.25,11.18-3.75c3.15-2.5,5.12-5.55,5.93-9.15.2-.6.3-1,.3-1.2.3-1.1.9-1.55,1.8-1.35l7.2.6c.8.2,1.2.65,1.2,1.35l-.15.6-.45,1.8c-1.4,5.9-4.7,10.78-9.9,14.62-5.2,3.85-11.3,5.78-18.3,5.78s-12.53-1.97-16.57-5.93Z"/><path class="e" d="M401.54,126.77c2.9-1.95,5.15-4.58,6.75-7.88.3-.9.9-1.25,1.8-1.05l6.6,1.35c.4.1.67.33.83.68.15.35.12.73-.08,1.12-2.3,5.6-5.85,10-10.65,13.2-4.8,3.2-10.3,4.8-16.5,4.8-7.4,0-13.08-2.05-17.02-6.15-3.95-4.1-5.93-9.65-5.93-16.65,0-3.7.45-9.15,1.35-16.35.6-6.5,1.5-12.1,2.7-16.8,1.6-6.7,4.95-12.1,10.05-16.2,5.1-4.1,11.15-6.15,18.15-6.15s12.85,2.1,16.95,6.3c4.1,4.2,6.15,9.75,6.15,16.65,0,1.8-.15,4.12-.45,6.98-.3,2.85-.5,4.93-.6,6.22-.4,2.6-.65,4.6-.75,6-.2,1-.75,1.5-1.65,1.5h-40.2c-.4,0-.6.2-.6.6-.3,1.6-.55,4.05-.75,7.35l-.3,3c0,4.3,1.27,7.78,3.82,10.42,2.55,2.65,6.02,3.97,10.43,3.97,3.7,0,7-.97,9.9-2.92ZM387.45,73.97c-3.1,2.65-5.2,6.13-6.3,10.42l-.45,3.15-1.05,7.35c-.1.4.05.6.45.6h30.75c.4,0,.6-.2.6-.6.5-4.3.75-7.85.75-10.65,0-4.2-1.23-7.62-3.67-10.28-2.45-2.65-5.78-3.97-9.98-3.97s-8,1.33-11.1,3.97Z"/><path class="e" d="M446.09,133.37c.1.15.25.22.45.22h42.3c.5,0,.87.15,1.12.45.25.3.32.65.22,1.05l-.15,1.2c-.2,1-.75,1.5-1.65,1.5h-47.1c-.5,0-.88-.15-1.12-.45-.25-.3-.33-.65-.23-1.05l.15-1.5c.2-.8.5-1.45.9-1.95l34.8-45.6c10.6-13.9,15.9-25.3,15.9-34.2,0-5.3-1.48-9.5-4.42-12.6-2.95-3.1-6.97-4.65-12.08-4.65-5.6,0-10.3,1.9-14.1,5.7-3.8,3.8-6.05,8.8-6.75,15l-.75,5.1c0,.4-.15.75-.45,1.05s-.7.45-1.2.45h-1.5c-.9,0-1.35-.5-1.35-1.5l.75-5.25c1-7.4,3.85-13.37,8.55-17.92,4.7-4.55,10.45-6.83,17.25-6.83,6.4,0,11.45,1.9,15.15,5.7,3.7,3.8,5.55,8.9,5.55,15.3,0,.8-.1,2.1-.3,3.9-1,8.7-6.5,19.65-16.5,32.85l-20.25,26.55-13.05,16.95c-.2.2-.25.38-.15.53Z"/><path class="e" d="M544.04,105.1l-.15,1.2c0,.4-.15.75-.45,1.05s-.7.45-1.2.45h-4.95c-.2,0-.38.05-.52.15-.15.1-.23.25-.23.45l-3.45,27.9c0,.4-.15.75-.45,1.05s-.7.45-1.2.45h-1.35c-.5,0-.88-.15-1.12-.45-.25-.3-.33-.65-.23-1.05l3.45-27.9c0-.4-.15-.6-.45-.6h-38.25c-.5,0-.88-.15-1.12-.45-.25-.3-.33-.65-.22-1.05l.15-1.5c.2-.9.4-1.5.6-1.8l36-69c.3-.8.85-1.2,1.65-1.2h1.5c.5,0,.85.18,1.05.52.2.35.15.78-.15,1.28l-35.4,68.25c-.1.2-.13.38-.07.53.05.15.17.22.38.22h34.35c.4,0,.6-.2.6-.6l3.45-27.15c0-.4.15-.75.45-1.05s.7-.45,1.2-.45h1.35c.5,0,.87.15,1.12.45.25.3.32.65.23,1.05l-3.3,27.15c-.1.1-.1.22,0,.38.1.15.25.22.45.22h5.1c1,0,1.4.5,1.2,1.5Z"/><path class="e" d="M433.45,42.44c1.75,1.01,3.14,2.39,4.15,4.12,1.01,1.73,1.52,3.63,1.52,5.7s-.51,4.03-1.52,5.78c-1.01,1.75-2.39,3.14-4.15,4.15-1.75,1.01-3.68,1.52-5.78,1.52s-4.04-.51-5.81-1.52c-1.77-1.01-3.16-2.4-4.18-4.15-1.01-1.75-1.52-3.68-1.52-5.78s.51-3.96,1.55-5.7c1.03-1.73,2.42-3.11,4.18-4.12,1.75-1.01,3.68-1.52,5.78-1.52s4.03.51,5.78,1.52ZM432.36,60.32c1.42-.82,2.54-1.94,3.36-3.36.82-1.42,1.23-2.99,1.23-4.7s-.41-3.21-1.23-4.62c-.82-1.4-1.94-2.51-3.36-3.33-1.42-.82-2.99-1.23-4.7-1.23s-3.28.41-4.7,1.23c-1.42.82-2.54,1.93-3.36,3.33-.82,1.4-1.23,2.94-1.23,4.62s.41,3.28,1.23,4.7c.82,1.42,1.94,2.54,3.36,3.36,1.42.82,2.99,1.23,4.7,1.23s3.28-.41,4.7-1.23ZM430.93,51.84c-.27.47-.64.8-1.11.99-.16.12-.21.23-.17.35l1.52,3.68.06.23c0,.31-.18.47-.53.47h-.76c-.31,0-.52-.15-.64-.47l-1.46-3.74c-.04-.12-.12-.18-.23-.18h-.93c-.16,0-.23.08-.23.23v3.56c0,.39-.2.58-.58.58h-.64c-.39,0-.58-.19-.58-.58v-9.29c0-.39.19-.58.58-.58h3.1c.89,0,1.62.29,2.19.88.56.58.85,1.33.85,2.22,0,.62-.14,1.17-.41,1.64ZM426.43,48.92v2.63c0,.16.08.23.23.23h1.34c.47,0,.84-.15,1.11-.44.27-.29.41-.65.41-1.08,0-.51-.14-.9-.41-1.17-.27-.27-.64-.41-1.11-.41h-1.34c-.16,0-.23.08-.23.23Z"/></svg>