<?xml version="1.0" encoding="utf-8" standalone="no"?>
<!DOCTYPE svg PUBLIC "-//W3C//DTD SVG 1.1//EN"
  "http://www.w3.org/Graphics/SVG/1.1/DTD/svg11.dtd">
<svg xmlns:xlink="http://www.w3.org/1999/xlink" width="349.32pt" height="37.8pt" viewBox="0 0 349.32 37.8" xmlns="http://www.w3.org/2000/svg" version="1.1">
 <metadata>
  <rdf:RDF xmlns:dc="http://purl.org/dc/elements/1.1/" xmlns:cc="http://creativecommons.org/ns#" xmlns:rdf="http://www.w3.org/1999/02/22-rdf-syntax-ns#">
   <cc:Work>
    <dc:type rdf:resource="http://purl.org/dc/dcmitype/StillImage"/>
    <dc:date>2024-06-06T15:30:33.414308</dc:date>
    <dc:format>image/svg+xml</dc:format>
    <dc:creator>
     <cc:Agent>
      <dc:title>Matplotlib v3.9.0, https://matplotlib.org/</dc:title>
     </cc:Agent>
    </dc:creator>
   </cc:Work>
  </rdf:RDF>
 </metadata>
 <defs>
  <style type="text/css">*{stroke-linejoin: round; stroke-linecap: butt}</style>
 </defs>
 <g id="figure_1">
  <g id="patch_1">
   <path d="M 0 37.8 
L 349.32 37.8 
L 349.32 -0 
L 0 -0 
L 0 37.8 
z
" style="fill: none"/>
  </g>
  <g id="text_1">
   <!-- $\mathrm{dnlim}(x,A,\Delta)=A+\Delta\exp\left(\dfrac{x-(A+\Delta)}{\Delta}\right) \text{ if } x&lt;A+\Delta \text{ else } x$ -->
   <g transform="translate(7.2 23.28) scale(0.12 -0.12)">
    <defs>
     <path id="DejaVuSans-64" d="M 2906 2969 
L 2906 4863 
L 3481 4863 
L 3481 0 
L 2906 0 
L 2906 525 
Q 2725 213 2448 61 
Q 2172 -91 1784 -91 
Q 1150 -91 751 415 
Q 353 922 353 1747 
Q 353 2572 751 3078 
Q 1150 3584 1784 3584 
Q 2172 3584 2448 3432 
Q 2725 3281 2906 2969 
z
M 947 1747 
Q 947 1113 1208 752 
Q 1469 391 1925 391 
Q 2381 391 2643 752 
Q 2906 1113 2906 1747 
Q 2906 2381 2643 2742 
Q 2381 3103 1925 3103 
Q 1469 3103 1208 2742 
Q 947 2381 947 1747 
z
" transform="scale(0.015625)"/>
     <path id="DejaVuSans-6e" d="M 3513 2113 
L 3513 0 
L 2938 0 
L 2938 2094 
Q 2938 2591 2744 2837 
Q 2550 3084 2163 3084 
Q 1697 3084 1428 2787 
Q 1159 2491 1159 1978 
L 1159 0 
L 581 0 
L 581 3500 
L 1159 3500 
L 1159 2956 
Q 1366 3272 1645 3428 
Q 1925 3584 2291 3584 
Q 2894 3584 3203 3211 
Q 3513 2838 3513 2113 
z
" transform="scale(0.015625)"/>
     <path id="DejaVuSans-6c" d="M 603 4863 
L 1178 4863 
L 1178 0 
L 603 0 
L 603 4863 
z
" transform="scale(0.015625)"/>
     <path id="DejaVuSans-69" d="M 603 3500 
L 1178 3500 
L 1178 0 
L 603 0 
L 603 3500 
z
M 603 4863 
L 1178 4863 
L 1178 4134 
L 603 4134 
L 603 4863 
z
" transform="scale(0.015625)"/>
     <path id="DejaVuSans-6d" d="M 3328 2828 
Q 3544 3216 3844 3400 
Q 4144 3584 4550 3584 
Q 5097 3584 5394 3201 
Q 5691 2819 5691 2113 
L 5691 0 
L 5113 0 
L 5113 2094 
Q 5113 2597 4934 2840 
Q 4756 3084 4391 3084 
Q 3944 3084 3684 2787 
Q 3425 2491 3425 1978 
L 3425 0 
L 2847 0 
L 2847 2094 
Q 2847 2600 2669 2842 
Q 2491 3084 2119 3084 
Q 1678 3084 1418 2786 
Q 1159 2488 1159 1978 
L 1159 0 
L 581 0 
L 581 3500 
L 1159 3500 
L 1159 2956 
Q 1356 3278 1631 3431 
Q 1906 3584 2284 3584 
Q 2666 3584 2933 3390 
Q 3200 3197 3328 2828 
z
" transform="scale(0.015625)"/>
     <path id="DejaVuSans-28" d="M 1984 4856 
Q 1566 4138 1362 3434 
Q 1159 2731 1159 2009 
Q 1159 1288 1364 580 
Q 1569 -128 1984 -844 
L 1484 -844 
Q 1016 -109 783 600 
Q 550 1309 550 2009 
Q 550 2706 781 3412 
Q 1013 4119 1484 4856 
L 1984 4856 
z
" transform="scale(0.015625)"/>
     <path id="DejaVuSans-Oblique-78" d="M 3841 3500 
L 2234 1784 
L 3219 0 
L 2559 0 
L 1819 1388 
L 531 0 
L -166 0 
L 1556 1844 
L 641 3500 
L 1300 3500 
L 1972 2234 
L 3144 3500 
L 3841 3500 
z
" transform="scale(0.015625)"/>
     <path id="DejaVuSans-2c" d="M 750 794 
L 1409 794 
L 1409 256 
L 897 -744 
L 494 -744 
L 750 256 
L 750 794 
z
" transform="scale(0.015625)"/>
     <path id="DejaVuSans-Oblique-41" d="M 2356 4666 
L 3072 4666 
L 3938 0 
L 3278 0 
L 3084 1197 
L 984 1197 
L 325 0 
L -341 0 
L 2356 4666 
z
M 2584 4044 
L 1275 1722 
L 2988 1722 
L 2584 4044 
z
" transform="scale(0.015625)"/>
     <path id="DejaVuSans-394" d="M 2188 4044 
L 906 525 
L 3472 525 
L 2188 4044 
z
M 50 0 
L 1831 4666 
L 2547 4666 
L 4325 0 
L 50 0 
z
" transform="scale(0.015625)"/>
     <path id="DejaVuSans-29" d="M 513 4856 
L 1013 4856 
Q 1481 4119 1714 3412 
Q 1947 2706 1947 2009 
Q 1947 1309 1714 600 
Q 1481 -109 1013 -844 
L 513 -844 
Q 928 -128 1133 580 
Q 1338 1288 1338 2009 
Q 1338 2731 1133 3434 
Q 928 4138 513 4856 
z
" transform="scale(0.015625)"/>
     <path id="DejaVuSans-3d" d="M 678 2906 
L 4684 2906 
L 4684 2381 
L 678 2381 
L 678 2906 
z
M 678 1631 
L 4684 1631 
L 4684 1100 
L 678 1100 
L 678 1631 
z
" transform="scale(0.015625)"/>
     <path id="DejaVuSans-2b" d="M 2944 4013 
L 2944 2272 
L 4684 2272 
L 4684 1741 
L 2944 1741 
L 2944 0 
L 2419 0 
L 2419 1741 
L 678 1741 
L 678 2272 
L 2419 2272 
L 2419 4013 
L 2944 4013 
z
" transform="scale(0.015625)"/>
     <path id="DejaVuSans-65" d="M 3597 1894 
L 3597 1613 
L 953 1613 
Q 991 1019 1311 708 
Q 1631 397 2203 397 
Q 2534 397 2845 478 
Q 3156 559 3463 722 
L 3463 178 
Q 3153 47 2828 -22 
Q 2503 -91 2169 -91 
Q 1331 -91 842 396 
Q 353 884 353 1716 
Q 353 2575 817 3079 
Q 1281 3584 2069 3584 
Q 2775 3584 3186 3129 
Q 3597 2675 3597 1894 
z
M 3022 2063 
Q 3016 2534 2758 2815 
Q 2500 3097 2075 3097 
Q 1594 3097 1305 2825 
Q 1016 2553 972 2059 
L 3022 2063 
z
" transform="scale(0.015625)"/>
     <path id="DejaVuSans-78" d="M 3513 3500 
L 2247 1797 
L 3578 0 
L 2900 0 
L 1881 1375 
L 863 0 
L 184 0 
L 1544 1831 
L 300 3500 
L 978 3500 
L 1906 2253 
L 2834 3500 
L 3513 3500 
z
" transform="scale(0.015625)"/>
     <path id="DejaVuSans-70" d="M 1159 525 
L 1159 -1331 
L 581 -1331 
L 581 3500 
L 1159 3500 
L 1159 2969 
Q 1341 3281 1617 3432 
Q 1894 3584 2278 3584 
Q 2916 3584 3314 3078 
Q 3713 2572 3713 1747 
Q 3713 922 3314 415 
Q 2916 -91 2278 -91 
Q 1894 -91 1617 61 
Q 1341 213 1159 525 
z
M 3116 1747 
Q 3116 2381 2855 2742 
Q 2594 3103 2138 3103 
Q 1681 3103 1420 2742 
Q 1159 2381 1159 1747 
Q 1159 1113 1420 752 
Q 1681 391 2138 391 
Q 2594 391 2855 752 
Q 3116 1113 3116 1747 
z
" transform="scale(0.015625)"/>
     <path id="STIXSizeTwoSym-Regular-28" d="M 3219 -1555 
L 3219 -1786 
Q 2144 -774 1517 730 
Q 890 2234 890 4115 
Q 890 6003 1533 7593 
Q 2176 9184 3219 10022 
L 3219 9811 
Q 2490 9062 1994 7606 
Q 1498 6150 1498 4115 
Q 1498 563 3219 -1555 
z
" transform="scale(0.015625)"/>
     <path id="DejaVuSans-2212" d="M 678 2272 
L 4684 2272 
L 4684 1741 
L 678 1741 
L 678 2272 
z
" transform="scale(0.015625)"/>
     <path id="STIXSizeTwoSym-Regular-29" d="M 730 9792 
L 730 10022 
Q 1805 9011 2432 7507 
Q 3059 6003 3059 4115 
Q 3059 2234 2416 643 
Q 1773 -947 730 -1786 
L 730 -1574 
Q 1459 -826 1955 633 
Q 2451 2093 2451 4115 
Q 2451 7674 730 9792 
z
" transform="scale(0.015625)"/>
     <path id="DejaVuSans-20" transform="scale(0.015625)"/>
     <path id="DejaVuSans-66" d="M 2375 4863 
L 2375 4384 
L 1825 4384 
Q 1516 4384 1395 4259 
Q 1275 4134 1275 3809 
L 1275 3500 
L 2222 3500 
L 2222 3053 
L 1275 3053 
L 1275 0 
L 697 0 
L 697 3053 
L 147 3053 
L 147 3500 
L 697 3500 
L 697 3744 
Q 697 4328 969 4595 
Q 1241 4863 1831 4863 
L 2375 4863 
z
" transform="scale(0.015625)"/>
     <path id="DejaVuSans-3c" d="M 4684 3150 
L 1459 2003 
L 4684 863 
L 4684 294 
L 678 1747 
L 678 2266 
L 4684 3719 
L 4684 3150 
z
" transform="scale(0.015625)"/>
     <path id="DejaVuSans-73" d="M 2834 3397 
L 2834 2853 
Q 2591 2978 2328 3040 
Q 2066 3103 1784 3103 
Q 1356 3103 1142 2972 
Q 928 2841 928 2578 
Q 928 2378 1081 2264 
Q 1234 2150 1697 2047 
L 1894 2003 
Q 2506 1872 2764 1633 
Q 3022 1394 3022 966 
Q 3022 478 2636 193 
Q 2250 -91 1575 -91 
Q 1294 -91 989 -36 
Q 684 19 347 128 
L 347 722 
Q 666 556 975 473 
Q 1284 391 1588 391 
Q 1994 391 2212 530 
Q 2431 669 2431 922 
Q 2431 1156 2273 1281 
Q 2116 1406 1581 1522 
L 1381 1569 
Q 847 1681 609 1914 
Q 372 2147 372 2553 
Q 372 3047 722 3315 
Q 1072 3584 1716 3584 
Q 2034 3584 2315 3537 
Q 2597 3491 2834 3397 
z
" transform="scale(0.015625)"/>
    </defs>
    <use xlink:href="#DejaVuSans-64" transform="translate(0 0.625)"/>
    <use xlink:href="#DejaVuSans-6e" transform="translate(63.476562 0.625)"/>
    <use xlink:href="#DejaVuSans-6c" transform="translate(126.855469 0.625)"/>
    <use xlink:href="#DejaVuSans-69" transform="translate(154.638672 0.625)"/>
    <use xlink:href="#DejaVuSans-6d" transform="translate(182.421875 0.625)"/>
    <use xlink:href="#DejaVuSans-28" transform="translate(279.833984 0.625)"/>
    <use xlink:href="#DejaVuSans-Oblique-78" transform="translate(318.847656 0.625)"/>
    <use xlink:href="#DejaVuSans-2c" transform="translate(378.027344 0.625)"/>
    <use xlink:href="#DejaVuSans-Oblique-41" transform="translate(429.296875 0.625)"/>
    <use xlink:href="#DejaVuSans-2c" transform="translate(497.705078 0.625)"/>
    <use xlink:href="#DejaVuSans-394" transform="translate(548.974609 0.625)"/>
    <use xlink:href="#DejaVuSans-29" transform="translate(617.382812 0.625)"/>
    <use xlink:href="#DejaVuSans-3d" transform="translate(675.878906 0.625)"/>
    <use xlink:href="#DejaVuSans-Oblique-41" transform="translate(779.150391 0.625)"/>
    <use xlink:href="#DejaVuSans-2b" transform="translate(867.041016 0.625)"/>
    <use xlink:href="#DejaVuSans-394" transform="translate(970.3125 0.625)"/>
    <use xlink:href="#DejaVuSans-65" transform="translate(1038.720703 0.625)"/>
    <use xlink:href="#DejaVuSans-78" transform="translate(1100.244141 0.625)"/>
    <use xlink:href="#DejaVuSans-70" transform="translate(1159.423828 0.625)"/>
    <use xlink:href="#STIXSizeTwoSym-Regular-28" transform="translate(1239.136067 -30.4375) scale(1.047256)"/>
    <use xlink:href="#DejaVuSans-Oblique-78" transform="translate(1300.833821 57.609375)"/>
    <use xlink:href="#DejaVuSans-2212" transform="translate(1379.49593 57.609375)"/>
    <use xlink:href="#DejaVuSans-28" transform="translate(1482.767415 57.609375)"/>
    <use xlink:href="#DejaVuSans-Oblique-41" transform="translate(1521.781086 57.609375)"/>
    <use xlink:href="#DejaVuSans-2b" transform="translate(1609.671711 57.609375)"/>
    <use xlink:href="#DejaVuSans-394" transform="translate(1712.943196 57.609375)"/>
    <use xlink:href="#DejaVuSans-29" transform="translate(1781.351399 57.609375)"/>
    <use xlink:href="#DejaVuSans-394" transform="translate(1526.833821 -59.734375)"/>
    <use xlink:href="#STIXSizeTwoSym-Regular-29" transform="translate(1832.865071 -30.4375) scale(1.047256)"/>
    <use xlink:href="#DejaVuSans-20" transform="translate(1896.553074 0.625)"/>
    <use xlink:href="#DejaVuSans-69" transform="translate(1928.340184 0.625)"/>
    <use xlink:href="#DejaVuSans-66" transform="translate(1956.123387 0.625)"/>
    <use xlink:href="#DejaVuSans-20" transform="translate(1991.328465 0.625)"/>
    <use xlink:href="#DejaVuSans-Oblique-78" transform="translate(2023.115574 0.625)"/>
    <use xlink:href="#DejaVuSans-3c" transform="translate(2101.777684 0.625)"/>
    <use xlink:href="#DejaVuSans-Oblique-41" transform="translate(2205.049168 0.625)"/>
    <use xlink:href="#DejaVuSans-2b" transform="translate(2292.939793 0.625)"/>
    <use xlink:href="#DejaVuSans-394" transform="translate(2396.211277 0.625)"/>
    <use xlink:href="#DejaVuSans-20" transform="translate(2464.619481 0.625)"/>
    <use xlink:href="#DejaVuSans-65" transform="translate(2496.40659 0.625)"/>
    <use xlink:href="#DejaVuSans-6c" transform="translate(2557.930027 0.625)"/>
    <use xlink:href="#DejaVuSans-73" transform="translate(2585.713231 0.625)"/>
    <use xlink:href="#DejaVuSans-65" transform="translate(2637.81284 0.625)"/>
    <use xlink:href="#DejaVuSans-20" transform="translate(2699.336277 0.625)"/>
    <use xlink:href="#DejaVuSans-Oblique-78" transform="translate(2731.123387 0.625)"/>
    <path d="M 1300.833821 19.421875 
L 1300.833821 25.671875 
L 1820.365071 25.671875 
L 1820.365071 19.421875 
L 1300.833821 19.421875 
z
"/>
   </g>
  </g>
 </g>
</svg>
